<?xml version='1.0' encoding='UTF-8'?>
<!DOCTYPE svg PUBLIC "-//W3C//DTD SVG 1.1//EN" "http://www.w3.org/Graphics/SVG/1.1/DTD/svg11.dtd">
<!-- Generated by graphviz version 12.2.1 (20241206.2353)
 -->
<!-- Pages: 1 -->
<svg xmlns="http://www.w3.org/2000/svg" xmlns:xlink="http://www.w3.org/1999/xlink" width="400pt" height="277pt" viewBox="0.00 0.00 400.38 277.00">
  <style>
    @import url("https://fonts.googleapis.com/css?family=Roboto:400,400i,700,700i");
    </style>
  <g id="graph0" class="graph" transform="scale(1 1) rotate(0) translate(4 273)">
    <polygon fill="#eeeeee" stroke="none" points="-4,4 -4,-273 396.38,-273 396.38,4 -4,4"/>
    <!-- StationMeasurements -->
    <g id="node1" class="table-hover">
      <title>StationMeasurements</title>
      <g id="a_node1">
        <a xlink:href="http://StationMeasurements_details.html" xlink:title="&lt;TABLE&gt;">
          <polygon fill="#3f51b5" stroke="none" points="8,-243.25 8,-265 200,-265 200,-243.25 8,-243.25"/>
          <polygon fill="none" stroke="black" points="8,-243.25 8,-265 200,-265 200,-243.25 8,-243.25"/>
          <text text-anchor="start" x="48.12" y="-250.6" font-family="Roboto" font-size="12.00" fill="white">StationMeasurements</text>
          <polygon fill="#bbdefb" stroke="none" points="8,-221.5 8,-243.25 116,-243.25 116,-221.5 8,-221.5"/>
          <polygon fill="none" stroke="black" points="8,-221.5 8,-243.25 116,-243.25 116,-221.5 8,-221.5"/>
          <text text-anchor="start" x="21.88" y="-228.85" font-family="Roboto" font-size="12.00">measurementid</text>
          <polygon fill="#bbdefb" stroke="none" points="116,-221.5 116,-243.25 200,-243.25 200,-221.5 116,-221.5"/>
          <polygon fill="none" stroke="black" points="116,-221.5 116,-243.25 200,-243.25 200,-221.5 116,-221.5"/>
          <text text-anchor="start" x="119" y="-228.85" font-family="Roboto" font-size="12.00">VARCHAR (PK)</text>
          <polygon fill="#bbdefb" stroke="none" points="8,-199.75 8,-221.5 116,-221.5 116,-199.75 8,-199.75"/>
          <polygon fill="none" stroke="black" points="8,-199.75 8,-221.5 116,-221.5 116,-199.75 8,-199.75"/>
          <text text-anchor="start" x="39.5" y="-207.1" font-family="Roboto" font-size="12.00">stationid</text>
          <polygon fill="#bbdefb" stroke="none" points="116,-199.75 116,-221.5 200,-221.5 200,-199.75 116,-199.75"/>
          <polygon fill="none" stroke="black" points="116,-199.75 116,-221.5 200,-221.5 200,-199.75 116,-199.75"/>
          <text text-anchor="start" x="120.5" y="-207.1" font-family="Roboto" font-size="12.00">INTEGER (PK)</text>
          <polygon fill="#bbdefb" stroke="none" points="8,-178 8,-199.75 116,-199.75 116,-178 8,-178"/>
          <polygon fill="none" stroke="black" points="8,-178 8,-199.75 116,-199.75 116,-178 8,-178"/>
          <text text-anchor="start" x="35" y="-185.35" font-family="Roboto" font-size="12.00">timestamp</text>
          <polygon fill="#bbdefb" stroke="none" points="116,-178 116,-199.75 200,-199.75 200,-178 116,-178"/>
          <polygon fill="none" stroke="black" points="116,-178 116,-199.75 200,-199.75 200,-178 116,-178"/>
          <text text-anchor="start" x="119" y="-185.35" font-family="Roboto" font-size="12.00">VARCHAR (PK)</text>
          <polygon fill="#bbdefb" stroke="none" points="8,-156.25 8,-178 116,-178 116,-156.25 8,-156.25"/>
          <polygon fill="none" stroke="black" points="8,-156.25 8,-178 116,-178 116,-156.25 8,-156.25"/>
          <text text-anchor="start" x="30.12" y="-163.6" font-family="Roboto" font-size="12.00">temperature</text>
          <polygon fill="#bbdefb" stroke="none" points="116,-156.25 116,-178 200,-178 200,-156.25 116,-156.25"/>
          <polygon fill="none" stroke="black" points="116,-156.25 116,-178 200,-178 200,-156.25 116,-156.25"/>
          <text text-anchor="start" x="126.12" y="-163.6" font-family="Roboto" font-size="12.00">NUMERIC ()</text>
          <polygon fill="#bbdefb" stroke="none" points="8,-134.5 8,-156.25 116,-156.25 116,-134.5 8,-134.5"/>
          <polygon fill="none" stroke="black" points="8,-134.5 8,-156.25 116,-156.25 116,-134.5 8,-134.5"/>
          <text text-anchor="start" x="11" y="-141.85" font-family="Roboto" font-size="12.00">groundtemperature</text>
          <polygon fill="#bbdefb" stroke="none" points="116,-134.5 116,-156.25 200,-156.25 200,-134.5 116,-134.5"/>
          <polygon fill="none" stroke="black" points="116,-134.5 116,-156.25 200,-156.25 200,-134.5 116,-134.5"/>
          <text text-anchor="start" x="126.12" y="-141.85" font-family="Roboto" font-size="12.00">NUMERIC ()</text>
          <polygon fill="#bbdefb" stroke="none" points="8,-112.75 8,-134.5 116,-134.5 116,-112.75 8,-112.75"/>
          <polygon fill="none" stroke="black" points="8,-112.75 8,-134.5 116,-134.5 116,-112.75 8,-112.75"/>
          <text text-anchor="start" x="20.75" y="-120.1" font-family="Roboto" font-size="12.00">feeltemperature</text>
          <polygon fill="#bbdefb" stroke="none" points="116,-112.75 116,-134.5 200,-134.5 200,-112.75 116,-112.75"/>
          <polygon fill="none" stroke="black" points="116,-112.75 116,-134.5 200,-134.5 200,-112.75 116,-112.75"/>
          <text text-anchor="start" x="126.12" y="-120.1" font-family="Roboto" font-size="12.00">NUMERIC ()</text>
          <polygon fill="#bbdefb" stroke="none" points="8,-91 8,-112.75 116,-112.75 116,-91 8,-91"/>
          <polygon fill="none" stroke="black" points="8,-91 8,-112.75 116,-112.75 116,-91 8,-91"/>
          <text text-anchor="start" x="35.38" y="-98.35" font-family="Roboto" font-size="12.00">windgusts</text>
          <polygon fill="#bbdefb" stroke="none" points="116,-91 116,-112.75 200,-112.75 200,-91 116,-91"/>
          <polygon fill="none" stroke="black" points="116,-91 116,-112.75 200,-112.75 200,-91 116,-91"/>
          <text text-anchor="start" x="126.12" y="-98.35" font-family="Roboto" font-size="12.00">NUMERIC ()</text>
          <polygon fill="#bbdefb" stroke="none" points="8,-69.25 8,-91 116,-91 116,-69.25 8,-69.25"/>
          <polygon fill="none" stroke="black" points="8,-69.25 8,-91 116,-91 116,-69.25 8,-69.25"/>
          <text text-anchor="start" x="26.75" y="-76.6" font-family="Roboto" font-size="12.00">windspeedBft</text>
          <polygon fill="#bbdefb" stroke="none" points="116,-69.25 116,-91 200,-91 200,-69.25 116,-69.25"/>
          <polygon fill="none" stroke="black" points="116,-69.25 116,-91 200,-91 200,-69.25 116,-69.25"/>
          <text text-anchor="start" x="126.12" y="-76.6" font-family="Roboto" font-size="12.00">NUMERIC ()</text>
          <polygon fill="#bbdefb" stroke="none" points="8,-47.5 8,-69.25 116,-69.25 116,-47.5 8,-47.5"/>
          <polygon fill="none" stroke="black" points="8,-47.5 8,-69.25 116,-69.25 116,-47.5 8,-47.5"/>
          <text text-anchor="start" x="39.12" y="-54.85" font-family="Roboto" font-size="12.00">humidity</text>
          <polygon fill="#bbdefb" stroke="none" points="116,-47.5 116,-69.25 200,-69.25 200,-47.5 116,-47.5"/>
          <polygon fill="none" stroke="black" points="116,-47.5 116,-69.25 200,-69.25 200,-47.5 116,-47.5"/>
          <text text-anchor="start" x="126.12" y="-54.85" font-family="Roboto" font-size="12.00">NUMERIC ()</text>
          <polygon fill="#bbdefb" stroke="none" points="8,-25.75 8,-47.5 116,-47.5 116,-25.75 8,-25.75"/>
          <polygon fill="none" stroke="black" points="8,-25.75 8,-47.5 116,-47.5 116,-25.75 8,-25.75"/>
          <text text-anchor="start" x="29.38" y="-33.1" font-family="Roboto" font-size="12.00">precipitation</text>
          <polygon fill="#bbdefb" stroke="none" points="116,-25.75 116,-47.5 200,-47.5 200,-25.75 116,-25.75"/>
          <polygon fill="none" stroke="black" points="116,-25.75 116,-47.5 200,-47.5 200,-25.75 116,-25.75"/>
          <text text-anchor="start" x="126.12" y="-33.1" font-family="Roboto" font-size="12.00">NUMERIC ()</text>
          <polygon fill="#bbdefb" stroke="none" points="8,-4 8,-25.75 116,-25.75 116,-4 8,-4"/>
          <polygon fill="none" stroke="black" points="8,-4 8,-25.75 116,-25.75 116,-4 8,-4"/>
          <text text-anchor="start" x="36.12" y="-11.35" font-family="Roboto" font-size="12.00">sunpower</text>
          <polygon fill="#bbdefb" stroke="none" points="116,-4 116,-25.75 200,-25.75 200,-4 116,-4"/>
          <polygon fill="none" stroke="black" points="116,-4 116,-25.75 200,-25.75 200,-4 116,-4"/>
          <text text-anchor="start" x="126.12" y="-11.35" font-family="Roboto" font-size="12.00">NUMERIC ()</text>
        </a>
      </g>
    </g>
    <!-- WeatherStations -->
    <g id="node2" class="table-hover">
      <title>WeatherStations</title>
      <g id="a_node2">
        <a xlink:href="http://WeatherStations_details.html" xlink:title="&lt;TABLE&gt;">
          <polygon fill="#3f51b5" stroke="none" points="233.62,-178 233.62,-199.75 384.38,-199.75 384.38,-178 233.62,-178"/>
          <polygon fill="none" stroke="black" points="233.62,-178 233.62,-199.75 384.38,-199.75 384.38,-178 233.62,-178"/>
          <text text-anchor="start" x="266.25" y="-185.35" font-family="Roboto" font-size="12.00" fill="white">WeatherStations</text>
          <polygon fill="#bbdefb" stroke="none" points="233.62,-156.25 233.62,-178 303.38,-178 303.38,-156.25 233.62,-156.25"/>
          <polygon fill="none" stroke="black" points="233.62,-156.25 233.62,-178 303.38,-178 303.38,-156.25 233.62,-156.25"/>
          <text text-anchor="start" x="246" y="-163.6" font-family="Roboto" font-size="12.00">stationid</text>
          <polygon fill="#bbdefb" stroke="none" points="303.38,-156.25 303.38,-178 384.38,-178 384.38,-156.25 303.38,-156.25"/>
          <polygon fill="none" stroke="black" points="303.38,-156.25 303.38,-178 384.38,-178 384.38,-156.25 303.38,-156.25"/>
          <text text-anchor="start" x="306.38" y="-163.6" font-family="Roboto" font-size="12.00">INTEGER (PK)</text>
          <polygon fill="#bbdefb" stroke="none" points="233.62,-134.5 233.62,-156.25 303.38,-156.25 303.38,-134.5 233.62,-134.5"/>
          <polygon fill="none" stroke="black" points="233.62,-134.5 233.62,-156.25 303.38,-156.25 303.38,-134.5 233.62,-134.5"/>
          <text text-anchor="start" x="236.62" y="-141.85" font-family="Roboto" font-size="12.00">stationname</text>
          <polygon fill="#bbdefb" stroke="none" points="303.38,-134.5 303.38,-156.25 384.38,-156.25 384.38,-134.5 303.38,-134.5"/>
          <polygon fill="none" stroke="black" points="303.38,-134.5 303.38,-156.25 384.38,-156.25 384.38,-134.5 303.38,-134.5"/>
          <text text-anchor="start" x="311.62" y="-141.85" font-family="Roboto" font-size="12.00">VARCHAR ()</text>
          <polygon fill="#bbdefb" stroke="none" points="233.62,-112.75 233.62,-134.5 303.38,-134.5 303.38,-112.75 233.62,-112.75"/>
          <polygon fill="none" stroke="black" points="233.62,-112.75 233.62,-134.5 303.38,-134.5 303.38,-112.75 233.62,-112.75"/>
          <text text-anchor="start" x="262.12" y="-120.1" font-family="Roboto" font-size="12.00">lat</text>
          <polygon fill="#bbdefb" stroke="none" points="303.38,-112.75 303.38,-134.5 384.38,-134.5 384.38,-112.75 303.38,-112.75"/>
          <polygon fill="none" stroke="black" points="303.38,-112.75 303.38,-134.5 384.38,-134.5 384.38,-112.75 303.38,-112.75"/>
          <text text-anchor="start" x="312" y="-120.1" font-family="Roboto" font-size="12.00">NUMERIC ()</text>
          <polygon fill="#bbdefb" stroke="none" points="233.62,-91 233.62,-112.75 303.38,-112.75 303.38,-91 233.62,-91"/>
          <polygon fill="none" stroke="black" points="233.62,-91 233.62,-112.75 303.38,-112.75 303.38,-91 233.62,-91"/>
          <text text-anchor="start" x="260.25" y="-98.35" font-family="Roboto" font-size="12.00">lon</text>
          <polygon fill="#bbdefb" stroke="none" points="303.38,-91 303.38,-112.75 384.38,-112.75 384.38,-91 303.38,-91"/>
          <polygon fill="none" stroke="black" points="303.38,-91 303.38,-112.75 384.38,-112.75 384.38,-91 303.38,-91"/>
          <text text-anchor="start" x="312" y="-98.35" font-family="Roboto" font-size="12.00">NUMERIC ()</text>
          <polygon fill="#bbdefb" stroke="none" points="233.62,-69.25 233.62,-91 303.38,-91 303.38,-69.25 233.62,-69.25"/>
          <polygon fill="none" stroke="black" points="233.62,-69.25 233.62,-91 303.38,-91 303.38,-69.25 233.62,-69.25"/>
          <text text-anchor="start" x="255" y="-76.6" font-family="Roboto" font-size="12.00">regio</text>
          <polygon fill="#bbdefb" stroke="none" points="303.38,-69.25 303.38,-91 384.38,-91 384.38,-69.25 303.38,-69.25"/>
          <polygon fill="none" stroke="black" points="303.38,-69.25 303.38,-91 384.38,-91 384.38,-69.25 303.38,-69.25"/>
          <text text-anchor="start" x="311.62" y="-76.6" font-family="Roboto" font-size="12.00">VARCHAR ()</text>
        </a>
      </g>
    </g>
  </g>
</svg>
